<svg width="44" height="44" viewBox="0 0 44 44" fill="none" xmlns="http://www.w3.org/2000/svg">
<rect width="44" height="44" rx="22" fill="#303030"/>
<path d="M24 17.5C24 17.3674 23.9473 17.2402 23.8536 17.1464C23.7598 17.0527 23.6326 17 23.5 17H20.5C20.3674 17 20.2402 17.0527 20.1464 17.1464C20.0527 17.2402 20 17.3674 20 17.5C20 17.6326 20.0527 17.7598 20.1464 17.8536C20.2402 17.9473 20.3674 18 20.5 18H23.5C23.6326 18 23.7598 17.9473 23.8536 17.8536C23.9473 17.7598 24 17.6326 24 17.5ZM29 17.5C29 17.3674 28.9473 17.2402 28.8536 17.1464C28.7598 17.0527 28.6326 17 28.5 17H25.5C25.3674 17 25.2402 17.0527 25.1464 17.1464C25.0527 17.2402 25 17.3674 25 17.5C25 17.6326 25.0527 17.7598 25.1464 17.8536C25.2402 17.9473 25.3674 18 25.5 18H28.5C28.6326 18 28.7598 17.9473 28.8536 17.8536C28.9473 17.7598 29 17.6326 29 17.5ZM19 17.5C19 17.3674 18.9473 17.2402 18.8536 17.1464C18.7598 17.0527 18.6326 17 18.5 17H15.5C15.3674 17 15.2402 17.0527 15.1464 17.1464C15.0527 17.2402 15 17.3674 15 17.5C15 17.6326 15.0527 17.7598 15.1464 17.8536C15.2402 17.9473 15.3674 18 15.5 18H18.5C18.6326 18 18.7598 17.9473 18.8536 17.8536C18.9473 17.7598 19 17.6326 19 17.5ZM24 20.5C24 20.3674 23.9473 20.2402 23.8536 20.1464C23.7598 20.0527 23.6326 20 23.5 20H20.5C20.3674 20 20.2402 20.0527 20.1464 20.1464C20.0527 20.2402 20 20.3674 20 20.5C20 20.6326 20.0527 20.7598 20.1464 20.8536C20.2402 20.9473 20.3674 21 20.5 21H23.5C23.6326 21 23.7598 20.9473 23.8536 20.8536C23.9473 20.7598 24 20.6326 24 20.5ZM29 20.5C29 20.3674 28.9473 20.2402 28.8536 20.1464C28.7598 20.0527 28.6326 20 28.5 20H25.5C25.3674 20 25.2402 20.0527 25.1464 20.1464C25.0527 20.2402 25 20.3674 25 20.5C25 20.6326 25.0527 20.7598 25.1464 20.8536C25.2402 20.9473 25.3674 21 25.5 21H28.5C28.6326 21 28.7598 20.9473 28.8536 20.8536C28.9473 20.7598 29 20.6326 29 20.5ZM19 20.5C19 20.3674 18.9473 20.2402 18.8536 20.1464C18.7598 20.0527 18.6326 20 18.5 20H15.5C15.3674 20 15.2402 20.0527 15.1464 20.1464C15.0527 20.2402 15 20.3674 15 20.5C15 20.6326 15.0527 20.7598 15.1464 20.8536C15.2402 20.9473 15.3674 21 15.5 21H18.5C18.6326 21 18.7598 20.9473 18.8536 20.8536C18.9473 20.7598 19 20.6326 19 20.5ZM24 23.5C24 23.3674 23.9473 23.2402 23.8536 23.1464C23.7598 23.0527 23.6326 23 23.5 23H20.5C20.3674 23 20.2402 23.0527 20.1464 23.1464C20.0527 23.2402 20 23.3674 20 23.5C20 23.6326 20.0527 23.7598 20.1464 23.8536C20.2402 23.9473 20.3674 24 20.5 24H23.5C23.6326 24 23.7598 23.9473 23.8536 23.8536C23.9473 23.7598 24 23.6326 24 23.5ZM29 23.5C29 23.3674 28.9473 23.2402 28.8536 23.1464C28.7598 23.0527 28.6326 23 28.5 23H25.5C25.3674 23 25.2402 23.0527 25.1464 23.1464C25.0527 23.2402 25 23.3674 25 23.5C25 23.6326 25.0527 23.7598 25.1464 23.8536C25.2402 23.9473 25.3674 24 25.5 24H28.5C28.6326 24 28.7598 23.9473 28.8536 23.8536C28.9473 23.7598 29 23.6326 29 23.5ZM19 23.5C19 23.3674 18.9473 23.2402 18.8536 23.1464C18.7598 23.0527 18.6326 23 18.5 23H15.5C15.3674 23 15.2402 23.0527 15.1464 23.1464C15.0527 23.2402 15 23.3674 15 23.5C15 23.6326 15.0527 23.7598 15.1464 23.8536C15.2402 23.9473 15.3674 24 15.5 24H18.5C18.6326 24 18.7598 23.9473 18.8536 23.8536C18.9473 23.7598 19 23.6326 19 23.5ZM24 26.5C24 26.3674 23.9473 26.2402 23.8536 26.1464C23.7598 26.0527 23.6326 26 23.5 26H20.5C20.3674 26 20.2402 26.0527 20.1464 26.1464C20.0527 26.2402 20 26.3674 20 26.5C20 26.6326 20.0527 26.7598 20.1464 26.8536C20.2402 26.9473 20.3674 27 20.5 27H23.5C23.6326 27 23.7598 26.9473 23.8536 26.8536C23.9473 26.7598 24 26.6326 24 26.5ZM29 26.5C29 26.3674 28.9473 26.2402 28.8536 26.1464C28.7598 26.0527 28.6326 26 28.5 26H25.5C25.3674 26 25.2402 26.0527 25.1464 26.1464C25.0527 26.2402 25 26.3674 25 26.5C25 26.6326 25.0527 26.7598 25.1464 26.8536C25.2402 26.9473 25.3674 27 25.5 27H28.5C28.6326 27 28.7598 26.9473 28.8536 26.8536C28.9473 26.7598 29 26.6326 29 26.5ZM19 26.5C19 26.3674 18.9473 26.2402 18.8536 26.1464C18.7598 26.0527 18.6326 26 18.5 26H15.5C15.3674 26 15.2402 26.0527 15.1464 26.1464C15.0527 26.2402 15 26.3674 15 26.5C15 26.6326 15.0527 26.7598 15.1464 26.8536C15.2402 26.9473 15.3674 27 15.5 27H18.5C18.6326 27 18.7598 26.9473 18.8536 26.8536C18.9473 26.7598 19 26.6326 19 26.5Z" fill="white"/>
</svg>
