<svg width="59" height="47" viewBox="0 0 59 47" fill="none" xmlns="http://www.w3.org/2000/svg">
<path fill-rule="evenodd" clip-rule="evenodd" d="M12.3251 3.77043C11.0309 5.8442 7.72828 11.101 4.98593 15.4523C2.24372 19.8035 0 23.425 0 23.5C0 23.575 2.24372 27.1965 4.98593 31.5477C7.72828 35.899 11.0309 41.1558 12.3251 43.2296L14.6784 47H29.5H44.3216L46.6749 43.2296C47.9691 41.1558 51.2717 35.899 54.0141 31.5477C56.7563 27.1965 59 23.575 59 23.5C59 23.425 56.7563 19.8035 54.0141 15.4523C51.2717 11.101 47.9691 5.8442 46.6749 3.77043L44.3216 0H29.5H14.6784L12.3251 3.77043ZM24.376 3.54398C27.5486 4.49496 30.3783 6.29381 32.2753 8.56553C33.0811 9.53043 34.3722 11.4923 34.3651 11.7409C34.3629 11.8149 33.8067 12.039 33.1289 12.2389C30.3259 13.0656 27.8941 14.4645 25.5461 16.6012C23.1735 18.7603 21.7762 20.8291 20.7041 23.7695C19.9437 25.8556 19.7109 27.4688 19.8054 29.9971C19.9421 33.6586 20.8516 36.3285 22.9927 39.3527C23.8656 40.5859 25.7297 42.5279 26.6882 43.2026C27.0472 43.4555 27.3435 43.6982 27.3465 43.7422C27.3545 43.8606 16.9963 43.8816 16.8116 43.7635C16.6556 43.6638 16.0043 42.6508 12.1012 36.4381C11.0119 34.7042 9.20701 31.8375 8.09016 30.0676C6.97331 28.2976 5.58953 26.0959 5.015 25.1747L3.97033 23.5L5.01686 21.8253C5.93294 20.3594 11.2358 11.9317 15.286 5.50492C16.0373 4.31291 16.7234 3.29323 16.8107 3.23885C16.8982 3.1846 18.3471 3.14441 20.0308 3.14967C23.0144 3.15886 23.1243 3.16884 24.376 3.54398ZM42.1893 3.23951C42.2766 3.2935 42.963 4.31291 43.7146 5.50492C46.4014 9.76673 52.9531 20.1809 53.9818 21.8253L55.0297 23.5L53.985 25.1747C53.4105 26.0959 52.0267 28.2976 50.9098 30.0676C49.793 31.8375 47.9881 34.7042 46.8988 36.4381C42.9837 42.67 42.3442 43.6638 42.1884 43.7589C42.1015 43.812 40.5268 43.8562 38.6891 43.8574C35.452 43.8594 35.3136 43.8486 34.2498 43.5139C31.8385 42.7553 29.9575 41.6658 28.0555 39.9265C27.3005 39.236 26.4241 38.3164 26.1079 37.8829C25.4688 37.0066 24.6318 35.591 24.6314 35.3857C24.6312 35.3125 25.0406 35.1451 25.5413 35.0136C26.8032 34.682 29.1837 33.6138 30.5826 32.7512C36.1518 29.317 39.4756 23.2888 39.1958 17.1295C39.1531 16.1903 39.0122 14.9263 38.8824 14.3207C38.3764 11.9566 37.1385 9.28783 35.6529 7.35775C34.808 6.26019 33.0556 4.52609 32.0495 3.79223C31.6796 3.52244 31.4135 3.26814 31.4582 3.22716C31.581 3.11459 42.0063 3.12655 42.1893 3.23951ZM35.6108 15.7175C35.6749 16.1329 35.7213 17.1525 35.7138 17.9833C35.6671 23.1324 32.6536 27.9276 27.7927 30.588C26.6216 31.229 24.7494 31.9702 23.9149 32.1232C23.533 32.1933 23.4963 32.1633 23.3875 31.6913C23.3232 31.4123 23.2795 30.2679 23.2904 29.1481C23.307 27.4348 23.3672 26.9129 23.6696 25.8546C25.0753 20.9359 28.7194 17.1678 33.7784 15.402C35.4707 14.8113 35.4706 14.8113 35.6108 15.7175Z" fill="#080808"/>
</svg>
