<svg width="44" height="44" viewBox="0 0 44 44" fill="none" xmlns="http://www.w3.org/2000/svg">
<rect width="44" height="44" rx="22" fill="white"/>
<path d="M27 17.5C27 17.3674 26.9473 17.2402 26.8536 17.1464C26.7598 17.0527 26.6326 17 26.5 17H17.5C17.3674 17 17.2402 17.0527 17.1464 17.1464C17.0527 17.2402 17 17.3674 17 17.5C17 17.6326 17.0527 17.7598 17.1464 17.8536C17.2402 17.9473 17.3674 18 17.5 18H26.5C26.6326 18 26.7598 17.9473 26.8536 17.8536C26.9473 17.7598 27 17.6326 27 17.5ZM27 20.5C27 20.3674 26.9473 20.2402 26.8536 20.1464C26.7598 20.0527 26.6326 20 26.5 20H17.5C17.3674 20 17.2402 20.0527 17.1464 20.1464C17.0527 20.2402 17 20.3674 17 20.5C17 20.6326 17.0527 20.7598 17.1464 20.8536C17.2402 20.9473 17.3674 21 17.5 21H26.5C26.6326 21 26.7598 20.9473 26.8536 20.8536C26.9473 20.7598 27 20.6326 27 20.5ZM27 23.5C27 23.3674 26.9473 23.2402 26.8536 23.1464C26.7598 23.0527 26.6326 23 26.5 23H17.5C17.3674 23 17.2402 23.0527 17.1464 23.1464C17.0527 23.2402 17 23.3674 17 23.5C17 23.6326 17.0527 23.7598 17.1464 23.8536C17.2402 23.9473 17.3674 24 17.5 24H26.5C26.6326 24 26.7598 23.9473 26.8536 23.8536C26.9473 23.7598 27 23.6326 27 23.5ZM27 26.5C27 26.3674 26.9473 26.2402 26.8536 26.1464C26.7598 26.0527 26.6326 26 26.5 26H17.5C17.3674 26 17.2402 26.0527 17.1464 26.1464C17.0527 26.2402 17 26.3674 17 26.5C17 26.6326 17.0527 26.7598 17.1464 26.8536C17.2402 26.9473 17.3674 27 17.5 27H26.5C26.6326 27 26.7598 26.9473 26.8536 26.8536C26.9473 26.7598 27 26.6326 27 26.5Z" fill="black"/>
</svg>
